<svg width="1726" height="1620" viewBox="0 0 1726 1620" fill="none" xmlns="http://www.w3.org/2000/svg">
<path d="M344.386 1125.5C369.968 1074.35 411.476 1075.35 429.032 1082.25C472.67 1079.24 477.311 1144.93 474.177 1178.16C471.168 1245.85 534.37 1235.2 566.347 1221.41C614.501 1194.33 624.031 1301.64 622.778 1358.68C635.318 1393.79 676.575 1442.56 741.282 1356.8C805.989 1271.05 854.77 1269.67 871.072 1279.7C922.235 1278.2 924.994 1370.59 919.978 1416.98C922.988 1487.69 957.598 1549.24 974.528 1571.18C1005.88 1604.41 1079.86 1653.93 1125.01 1586.23C1170.15 1518.53 1125.01 1411.34 1096.79 1366.21C1056.16 1310.54 1056.04 1259.02 1061.05 1240.21C1076.1 1193.58 1141.31 1212.01 1172.03 1227.05C1321.01 1210.5 1264.2 1111.08 1217.18 1063.44C1185.58 1022.83 1204.01 991.358 1217.18 980.702C1280.38 944.596 1373.93 1000.76 1412.8 1033.36C1436.88 1064.95 1491.81 1065.32 1516.26 1061.56C1656.21 977.317 1579.59 894.825 1523.78 864.11C1514.76 858.093 1395.88 847.812 1337.56 843.425C1241.26 823.867 1297.44 729.967 1337.56 685.461C1456.44 629.798 1387.1 577.019 1337.56 557.587C1242.76 497.41 1295.55 443.502 1333.8 424.07C1348.85 407.522 1429.11 395.863 1467.35 392.102C1507.98 374.049 1516.89 344.462 1516.26 331.925C1510.24 286.793 1472.37 276.763 1454.19 277.39C1418.07 271.373 1391.49 298.703 1382.71 313.12C1301.45 398.871 1301.2 387.714 1292.42 386.46C1208.15 413.539 1192.1 283.659 1194.61 215.333C1143.82 113.786 1077.98 190.887 1051.65 207.811C1030.58 221.351 997.727 243.541 983.933 252.944C941.798 270.997 912.454 254.197 903.049 243.541C897.406 239.78 883.863 227.745 874.834 209.692C863.548 187.126 869.191 181.484 869.191 179.604C864.676 166.064 871.072 147.635 874.834 140.113C876.715 131.337 880.477 108.896 880.477 89.339C880.477 69.7817 874.207 54.863 871.072 49.8483C865.052 25.7777 843.483 9.73045 833.451 4.71565C822.918 -2.8064 797.712 0.327783 786.426 2.83513C750.31 23.8969 738.774 36.6844 737.52 40.4454C711.938 50.9763 725.606 92.4729 735.638 111.905C735.638 134.471 751.941 152.649 760.092 158.918C775.14 195.024 772.632 216.587 769.497 222.855C764.982 245.421 747.552 264.853 739.401 271.748C718.333 309.359 669.176 321.269 647.231 322.522C611.491 330.044 575.752 313.12 573.871 311.239C555.813 312.744 513.679 281.778 494.868 266.107L436.557 196.528L397.055 140.113C387.65 129.456 367.712 104.759 363.197 91.2192C358.683 77.6795 314.918 40.4454 293.6 23.5208C287.58 14.4943 257.233 7.223 242.812 4.71565H203.311C167.195 9.22888 140.61 44.2064 131.832 61.131C113.774 82.1928 121.8 126.322 128.07 145.754C149.137 213.453 207.073 249.182 233.407 258.585L350.03 320.642C390.66 325.155 425.898 382.699 438.438 410.906V471.083C429.409 516.215 409.596 551.318 400.818 563.228C381.255 602.342 336.236 620.897 316.172 625.285C290.59 635.815 261.622 628.419 250.336 623.404C238.298 617.387 213.97 613.375 203.311 612.121H148.761C130.704 610.617 112.395 617.763 105.497 621.524C95.4652 626.539 70.5104 641.833 50.9478 662.895C31.3852 683.957 32.7646 721.818 35.8997 738.116C49.443 784.752 87.9411 810.202 105.497 817.097C123.555 830.637 193.278 835.276 225.882 835.902C258.988 840.416 287.329 875.393 297.361 892.318C309.399 932.937 294.853 974.433 286.075 990.104C272.532 1012.67 231.525 1043.39 212.715 1055.92L152.523 1110.46C133.712 1129.89 95.7155 1178.53 94.2107 1217.65C92.7059 1256.76 103.616 1276.57 109.259 1281.58C127.317 1307.16 168.197 1301.02 186.381 1294.75C194.532 1291.61 216.477 1280.46 239.049 1260.9C261.621 1241.34 318.679 1162.48 344.386 1125.5Z" fill="#D9D9D9"/>
<path d="M207.073 486.127C202.558 532.764 114.903 523.111 71.6396 512.454C62.6102 510.427 32.765 489.044 18.9711 478.605C-20.154 437.986 10.1931 405.265 30.2572 393.982C114.527 393.982 183.247 455.412 207.073 486.127Z" fill="#D9D9D9"/>
<path d="M1424.09 123.188C1357.88 97.6133 1340.07 178.977 1339.45 222.855C1365.03 249.935 1406.54 225.363 1424.09 209.692C1463.22 167.568 1440.39 134.471 1424.09 123.188Z" fill="#D9D9D9"/>
<path d="M1676.15 741.877C1593.38 716.302 1543.85 767.577 1529.43 796.412V798.292C1527.92 825.372 1561.41 838.41 1578.33 841.544C1650.57 870.128 1696.21 849.693 1710.01 835.902C1750.64 784.753 1704.36 751.906 1676.15 741.877Z" fill="#D9D9D9"/>
<path d="M1243.51 1400.06C1294.3 1345.52 1211.54 1315.43 1209.66 1313.55C1190.85 1306.66 1155.48 1306.78 1164.51 1362.45C1173.54 1418.11 1220.94 1410.71 1243.51 1400.06Z" fill="#D9D9D9"/>
</svg>
